<?xml version="1.0" encoding="utf-8"?>
<!-- Generator: Adobe Illustrator 16.0.0, SVG Export Plug-In . SVG Version: 6.00 Build 0)  -->
<!DOCTYPE svg PUBLIC "-//W3C//DTD SVG 1.1//EN" "http://www.w3.org/Graphics/SVG/1.1/DTD/svg11.dtd">
<svg version="1.1" id="Layer_1" xmlns="http://www.w3.org/2000/svg" xmlns:xlink="http://www.w3.org/1999/xlink" x="0px" y="0px"
	 width="38.838px" height="38.839px" viewBox="-3.227 -3.259 38.838 38.839" enable-background="new -3.227 -3.259 38.838 38.839"
	 xml:space="preserve">
<path fill="#231F20" d="M-3.227-3.259V35.58h38.838V-3.259H-3.227z M21.448,31.748c-0.826,0.157-1.119-0.348-1.119-0.783
	c0-0.535,0.02-2.291,0.02-4.469c0-1.521-0.52-2.515-1.105-3.019c3.629-0.402,7.438-1.78,7.438-8.038
	c0-1.777-0.632-3.231-1.675-4.371c0.168-0.412,0.728-2.067-0.161-4.311c0,0-1.366-0.438-4.476,1.67
	c-1.303-0.361-2.695-0.542-4.079-0.548c-1.385,0.006-2.779,0.187-4.078,0.548c-3.111-2.108-4.479-1.67-4.479-1.67
	c-0.887,2.243-0.327,3.898-0.16,4.311c-1.042,1.14-1.677,2.594-1.677,4.371c0,6.242,3.803,7.64,7.42,8.052
	c-0.465,0.406-0.886,1.125-1.034,2.178c-0.928,0.416-3.288,1.134-4.741-1.354c0,0-0.86-1.564-2.495-1.68c0,0-1.591-0.021-0.112,0.99
	c0,0,1.068,0.502,1.809,2.383c0,0,0.956,3.168,5.487,2.184c0.008,1.359,0.022,2.385,0.022,2.771c0,0.431-0.298,0.933-1.112,0.785
	C4.667,29.593,0,23.488,0,16.291C0,7.293,7.294,0,16.289,0c8.997,0,16.29,7.293,16.29,16.293
	C32.579,23.488,27.917,29.59,21.448,31.748z"/>
</svg>
