<?xml version="1.0" encoding="UTF-8" standalone="no"?>
<!-- Created with Inkscape (http://www.inkscape.org/) -->

<svg
   xmlns:dc="http://purl.org/dc/elements/1.1/"
   xmlns:cc="http://creativecommons.org/ns#"
   xmlns:rdf="http://www.w3.org/1999/02/22-rdf-syntax-ns#"
   xmlns:svg="http://www.w3.org/2000/svg"
   xmlns="http://www.w3.org/2000/svg"
   xmlns:sodipodi="http://sodipodi.sourceforge.net/DTD/sodipodi-0.dtd"
   xmlns:inkscape="http://www.inkscape.org/namespaces/inkscape"
   width="100"
   height="100"
   viewBox="0 0 26.458333 26.458334"
   version="1.1"
   id="svg633"
   inkscape:version="0.92.0 r15299"
   sodipodi:docname="Github_Small.svg">
  <defs
     id="defs627" />
  <sodipodi:namedview
     id="base"
     pagecolor="#ffffff"
     bordercolor="#666666"
     borderopacity="1.0"
     inkscape:pageopacity="0.0"
     inkscape:pageshadow="2"
     inkscape:zoom="5.6"
     inkscape:cx="50.971603"
     inkscape:cy="41.185335"
     inkscape:document-units="mm"
     inkscape:current-layer="layer1"
     showgrid="false"
     units="px"
     inkscape:window-width="1920"
     inkscape:window-height="1017"
     inkscape:window-x="1592"
     inkscape:window-y="-8"
     inkscape:window-maximized="1" />
  <metadata
     id="metadata630">
    <rdf:RDF>
      <cc:Work
         rdf:about="">
        <dc:format>image/svg+xml</dc:format>
        <dc:type
           rdf:resource="http://purl.org/dc/dcmitype/StillImage" />
        <dc:title></dc:title>
      </cc:Work>
    </rdf:RDF>
  </metadata>
  <g
     inkscape:label="Layer 1"
     inkscape:groupmode="layer"
     id="layer1"
     transform="translate(0,-270.54165)">
    <path
       style="stroke-width:0.99999994"
       d="M 0 0 L 0 100 L 100 100 L 100 0 L 0 0 z M 49.996094 6.1113281 C 74.850448 6.1113281 95 26.256974 95 51.111328 C 95 70.987629 82.117952 87.842369 64.25 93.806641 C 61.965399 94.245881 61.15625 92.845082 61.15625 91.640625 C 61.15625 90.165442 61.210938 85.312825 61.210938 79.298828 C 61.210938 75.099804 59.772322 72.352436 58.15625 70.962891 C 68.18142 69.849597 78.703125 66.045636 78.703125 48.757812 C 78.703125 43.84606 76.960238 39.830099 74.076172 36.683594 C 74.540275 35.545437 76.084783 30.96976 73.628906 24.773438 C 73.628906 24.773438 69.859002 23.563336 61.267578 29.386719 C 57.673545 28.389451 53.822512 27.889622 50.001953 27.873047 C 46.175869 27.889622 42.324836 28.389451 38.736328 29.386719 C 30.139379 23.563336 26.359375 24.773438 26.359375 24.773438 C 23.911786 30.96976 25.455819 35.545437 25.919922 36.683594 C 23.04138 39.830099 21.287109 43.84606 21.287109 48.757812 C 21.287109 66.001436 31.793137 69.864606 41.785156 71 C 40.497824 72.124344 39.33854 74.106696 38.929688 77.015625 C 36.366073 78.164832 29.845967 80.151292 25.832031 73.275391 C 25.832031 73.275391 23.456166 68.957171 18.939453 68.636719 C 18.939453 68.636719 14.545099 68.582097 18.630859 71.375 C 18.630859 71.375 21.579929 72.758786 23.626953 77.955078 C 23.626953 77.955078 26.268197 86.706597 38.785156 83.988281 C 38.807256 87.74254 38.845703 90.574294 38.845703 91.640625 C 38.845703 92.834032 38.026841 94.224115 35.775391 93.8125 C 17.893626 87.859279 5 70.993154 5 51.111328 C 5 26.256974 25.147265 6.1113281 49.996094 6.1113281 z "
       transform="matrix(0.26458333,0,0,0.26458333,0,270.54165)"
       id="rect643" />
    <g
       transform="matrix(0.73091562,0,0,-0.73091562,13.22807,272.15844)"
       id="g95" />
  </g>
</svg>
