<?xml version="1.0" encoding="UTF-8" standalone="no"?>
<!-- Generator: Adobe Illustrator 16.0.0, SVG Export Plug-In . SVG Version: 6.00 Build 0)  -->

<svg
   viewBox="-22.728 107.341 100 100"
   enable-background="new -22.728 107.341 640 640"/>
<g
   id="g32"
   transform="matrix(0.15625,0,0,0.15625,-19.17675,90.568969)">
	<path
   d="m 520.27,258.697 c -5.232,-13.371 -11.395,-22.904 -21.393,-32.903 -9.998,-9.999 -19.533,-16.161 -32.902,-21.393 -10.115,-3.953 -25.23,-8.604 -53.135,-9.883 -30.113,-1.396 -39.182,-1.628 -115.568,-1.628 -76.386,0 -85.455,0.232 -115.567,1.628 -27.904,1.279 -43.019,5.93 -53.134,9.883 -13.37,5.231 -22.904,11.394 -32.903,21.393 -9.999,9.999 -16.161,19.532 -21.393,32.903 -3.953,10.115 -8.604,25.229 -9.883,53.133 -1.278,30.113 -1.628,39.182 -1.628,115.568 0,76.386 0.232,85.456 1.628,115.568 1.279,27.904 5.93,43.019 9.883,53.134 5.231,13.37 11.394,22.904 21.393,32.903 9.999,9.998 19.533,16.16 32.903,21.393 10.115,3.953 25.229,8.604 53.134,9.883 30.112,1.278 39.182,1.627 115.567,1.627 76.387,0 85.455,-0.232 115.568,-1.627 27.904,-1.279 43.02,-5.93 53.135,-9.883 13.369,-5.232 22.904,-11.395 32.902,-21.393 9.998,-9.999 16.16,-19.533 21.393,-32.903 3.953,-10.115 8.604,-25.229 9.883,-53.134 1.279,-30.112 1.627,-39.182 1.627,-115.568 0,-76.386 -0.232,-85.455 -1.627,-115.568 -1.279,-27.903 -5.93,-43.018 -9.883,-53.133 z M 297.272,574.242 c -81.037,0 -146.843,-65.69 -146.843,-146.844 0,-81.154 65.689,-146.844 146.843,-146.844 81.154,0 146.844,65.807 146.844,146.844 0,81.037 -65.807,146.844 -146.844,146.844 z M 450.045,309.04 c -18.941,0 -34.299,-15.355 -34.299,-34.298 0,-18.943 15.357,-34.299 34.299,-34.299 18.943,0 34.299,15.356 34.299,34.299 0,18.943 -15.355,34.298 -34.299,34.298 z"
   id="path26"
   inkscape:connector-curvature="0"
   style="fill:#231f20" />
	<path
   d="m 297.272,332.06 c -52.668,0 -95.338,42.67 -95.338,95.338 0,52.669 42.67,95.338 95.338,95.338 52.67,0 95.338,-42.669 95.338,-95.338 0,-52.668 -42.668,-95.338 -95.338,-95.338 z"
   id="path28"
   inkscape:connector-curvature="0"
   style="fill:#231f20" />
	<path
   d="m -22.728,107.341 v 640 h 640 v -640 z m 604.27,437.835 c -1.395,30.462 -6.162,51.273 -13.254,69.411 -7.324,18.835 -17.09,34.763 -33.02,50.691 -15.928,15.929 -31.855,25.695 -50.691,33.02 -18.137,6.976 -38.949,11.859 -69.41,13.254 -30.463,1.396 -40.229,1.744 -117.895,1.744 -77.665,0 -87.432,-0.349 -117.893,-1.744 -30.462,-1.395 -51.273,-6.162 -69.411,-13.254 C 91.133,690.974 75.204,681.207 59.277,665.278 43.348,649.349 33.582,633.422 26.257,614.587 19.28,596.449 14.398,575.638 13.002,545.176 11.607,514.715 11.259,504.948 11.259,427.282 c 0,-77.665 0.349,-87.432 1.743,-117.894 1.396,-30.461 6.162,-51.272 13.255,-69.41 7.324,-18.719 17.091,-34.764 33.02,-50.576 15.928,-15.928 31.856,-25.694 50.691,-33.019 18.138,-7.093 38.949,-11.976 69.527,-13.255 30.461,-1.396 40.228,-1.744 117.894,-1.744 77.666,0 87.432,0.349 117.893,1.744 30.463,1.396 51.273,6.162 69.412,13.255 18.834,7.324 34.762,17.091 50.691,33.019 15.813,15.813 25.578,31.857 32.902,50.576 6.977,18.138 11.859,38.949 13.254,69.41 1.396,30.462 1.744,40.229 1.744,117.894 10e-4,77.666 -0.347,87.432 -1.743,117.894 z"
   id="path30"
   inkscape:connector-curvature="0"
   style="fill:#231f20" />
</g>
</svg>