<?xml version="1.0" encoding="utf-8"?>
<!-- Generator: Adobe Illustrator 16.0.0, SVG Export Plug-In . SVG Version: 6.00 Build 0)  -->
<!DOCTYPE svg PUBLIC "-//W3C//DTD SVG 1.1//EN" "http://www.w3.org/Graphics/SVG/1.1/DTD/svg11.dtd">
<svg version="1.1" id="Layer_1" xmlns="http://www.w3.org/2000/svg" xmlns:xlink="http://www.w3.org/1999/xlink" x="0px" y="0px"
	 width="640px" height="640px" viewBox="-22.728 107.341 640 640" enable-background="new -22.728 107.341 640 640"
	 xml:space="preserve">
<g id="Edges">
</g>
<g>
	<path fill="#231F20" d="M520.27,258.697c-5.232-13.371-11.395-22.904-21.393-32.903s-19.533-16.161-32.902-21.393
		c-10.115-3.953-25.23-8.604-53.135-9.883c-30.113-1.396-39.182-1.628-115.568-1.628c-76.386,0-85.455,0.232-115.567,1.628
		c-27.904,1.279-43.019,5.93-53.134,9.883c-13.37,5.231-22.904,11.394-32.903,21.393s-16.161,19.532-21.393,32.903
		c-3.953,10.115-8.604,25.229-9.883,53.133c-1.278,30.113-1.628,39.182-1.628,115.568s0.232,85.456,1.628,115.568
		c1.279,27.904,5.93,43.019,9.883,53.134c5.231,13.37,11.394,22.904,21.393,32.903c9.999,9.998,19.533,16.16,32.903,21.393
		c10.115,3.953,25.229,8.604,53.134,9.883c30.112,1.278,39.182,1.627,115.567,1.627c76.387,0,85.455-0.232,115.568-1.627
		c27.904-1.279,43.02-5.93,53.135-9.883c13.369-5.232,22.904-11.395,32.902-21.393c9.998-9.999,16.16-19.533,21.393-32.903
		c3.953-10.115,8.604-25.229,9.883-53.134c1.279-30.112,1.627-39.182,1.627-115.568s-0.232-85.455-1.627-115.568
		C528.874,283.927,524.223,268.812,520.27,258.697z M297.272,574.242c-81.037,0-146.843-65.69-146.843-146.844
		s65.689-146.844,146.843-146.844c81.154,0,146.844,65.807,146.844,146.844S378.309,574.242,297.272,574.242z M450.045,309.04
		c-18.941,0-34.299-15.355-34.299-34.298s15.357-34.299,34.299-34.299c18.943,0,34.299,15.356,34.299,34.299
		S468.989,309.04,450.045,309.04z"/>
	<path fill="#231F20" d="M297.272,332.06c-52.668,0-95.338,42.67-95.338,95.338c0,52.669,42.67,95.338,95.338,95.338
		c52.67,0,95.338-42.669,95.338-95.338C392.61,374.73,349.942,332.06,297.272,332.06z"/>
	<path fill="#231F20" d="M-22.728,107.341v640h640v-640H-22.728z M581.542,545.176c-1.395,30.462-6.162,51.273-13.254,69.411
		c-7.324,18.835-17.09,34.763-33.02,50.691c-15.928,15.929-31.855,25.695-50.691,33.02c-18.137,6.976-38.949,11.859-69.41,13.254
		c-30.463,1.396-40.229,1.744-117.895,1.744c-77.665,0-87.432-0.349-117.893-1.744c-30.462-1.395-51.273-6.162-69.411-13.254
		c-18.835-7.324-34.764-17.091-50.691-33.02c-15.929-15.929-25.695-31.856-33.02-50.691c-6.977-18.138-11.859-38.949-13.255-69.411
		c-1.395-30.461-1.743-40.228-1.743-117.894c0-77.665,0.349-87.432,1.743-117.894c1.396-30.461,6.162-51.272,13.255-69.41
		c7.324-18.719,17.091-34.764,33.02-50.576c15.928-15.928,31.856-25.694,50.691-33.019c18.138-7.093,38.949-11.976,69.527-13.255
		c30.461-1.396,40.228-1.744,117.894-1.744s87.432,0.349,117.893,1.744c30.463,1.396,51.273,6.162,69.412,13.255
		c18.834,7.324,34.762,17.091,50.691,33.019c15.813,15.813,25.578,31.857,32.902,50.576c6.977,18.138,11.859,38.949,13.254,69.41
		c1.396,30.462,1.744,40.229,1.744,117.894C583.286,504.948,582.938,514.714,581.542,545.176z"/>
</g>
</svg>
