<?xml version="1.0" encoding="UTF-8" standalone="no"?>
<!-- Generator: Adobe Illustrator 16.0.0, SVG Export Plug-In . SVG Version: 6.00 Build 0)  -->

<svg
   xmlns:dc="http://purl.org/dc/elements/1.1/"
   xmlns:cc="http://creativecommons.org/ns#"
   xmlns:rdf="http://www.w3.org/1999/02/22-rdf-syntax-ns#"
   xmlns:svg="http://www.w3.org/2000/svg"
   xmlns="http://www.w3.org/2000/svg"
   xmlns:xlink="http://www.w3.org/1999/xlink"
   xmlns:sodipodi="http://sodipodi.sourceforge.net/DTD/sodipodi-0.dtd"
   xmlns:inkscape="http://www.inkscape.org/namespaces/inkscape"
   version="1.1"
   x="0px"
   y="0px"
   width="100"
   height="100"
   viewBox="0 0 100 100"
   enable-background="new 0 0 434.667 434.667"
   xml:space="preserve"
   id="svg3692"
   sodipodi:docname="Logo_Sam.svg"
   inkscape:version="0.92.0 r15299"><metadata
   id="metadata3698"><rdf:RDF><cc:Work
       rdf:about=""><dc:format>image/svg+xml</dc:format><dc:type
         rdf:resource="http://purl.org/dc/dcmitype/StillImage" /><dc:title /></cc:Work></rdf:RDF></metadata><defs
   id="defs3696" /><sodipodi:namedview
   pagecolor="#ffffff"
   bordercolor="#666666"
   borderopacity="1"
   objecttolerance="10"
   gridtolerance="10"
   guidetolerance="10"
   inkscape:pageopacity="0"
   inkscape:pageshadow="2"
   inkscape:window-width="1920"
   inkscape:window-height="1017"
   id="namedview3694"
   showgrid="false"
   inkscape:zoom="5.4399461"
   inkscape:cx="63.429868"
   inkscape:cy="70.994839"
   inkscape:window-x="1592"
   inkscape:window-y="-8"
   inkscape:window-maximized="1"
   inkscape:current-layer="Layer_2" />
<g
   id="Layer_1"
   display="none"
   style="display:none"
   transform="translate(0,-334.66699)">
	
		<image
   sodipodi:absref="D:\Mes Documents\LAMANU\CV Numerique\images\svg\784703F1.jpg"
   xlink:href="784703F1.jpg"
   id="image3680"
   transform="matrix(4.6692,0,0,4.6692,-4853.8232,-6198.1719)"
   height="1884"
   width="1280"
   overflow="visible"
   display="inline"
   style="display:inline;overflow:visible">
	</image>
</g>
<g
   id="Layer_2"
   transform="translate(0,-334.66699)">
	
<g
   id="g3727"
   transform="matrix(0.23006117,0,0,0.23006117,7.09805e-7,334.66699)"><g
     display="none"
     id="Layer_1-5"
     style="display:none">
	
		<image
   sodipodi:absref="D:\Mes Documents\LAMANU\CV Numerique\images\svg\784703F1.jpg"
   xlink:href="784703F1.jpg"
   style="display:inline;overflow:visible"
   display="inline"
   overflow="visible"
   width="1280"
   height="1884"
   transform="matrix(4.6692,0,0,4.6692,-4853.8232,-6198.1719)"
   id="image3700">
	</image>
</g><g
     id="Layer_2-3">
	<g
   id="g3709">
		<path
   id="path3703"
   d="m 331.479,296.072 c -0.076,-0.576 -0.143,-1.154 -0.217,-1.731 -0.019,-0.089 0.032,0.335 0.217,1.731 z"
   inkscape:connector-curvature="0"
   style="fill:#231f20" />
		<path
   id="path3705"
   d="m 280.045,156.675 c 0.084,0.009 0.168,0.008 0.253,-0.003 l 0.056,-0.002 c -0.024,-0.046 -0.319,0.008 -0.309,0.005 z"
   inkscape:connector-curvature="0"
   style="fill:#231f20" />
		<path
   id="path3707"
   d="M 0,0 V 434.667 H 434.667 V 0 Z m 336.969,26.347 c -1.15982,28.447487 -2.74956,57.295109 -4.202,83.65 -12.29412,67.01274 -2.16116,135.02765 3.52138,202.9214 -9.993,-33.069 -15.34238,-66.7604 -16.69338,-101.1464 -1.46,-37.168 -1.573,-74.262 0.335,-111.42 -9.30101,17.50494 -18.41257,58.30492 -38.324,62.968 -16.967,3.838 -21.055,-26.398 -22.892,-36.729 -0.99058,46.85745 -1.90891,84.74745 -2.846,131.604 21.54352,-1.81288 38.51093,1.53432 55.556,10.017 -14.30158,-0.30675 -45.13838,0.5843 -55.474,0.225 -0.65776,14.59902 -0.68056,27.53588 -2.436,43.37 0.015,-14.412 -0.971,-28.825 -0.956,-43.237 -21.47058,0.14476 -38.02826,1.36559 -59.322,2.74 -2.23199,51.30068 -4.5475,106.15914 -7.218,150.796 -0.333,-0.009 -0.667,-0.017 -1,-0.025 -0.634,-50.023 -0.479,-100.067 0.046,-150.093 -6.0055,0.0359 -43.59599,3.90706 -56.404,1.604 14.638,-1.231 56.469,-7.469 56.469,-7.469 0.4407,-45.62207 1.20848,-94.08471 2.132,-135.606 -12.548,50.406 -33.333,96.296 -69.379,134.233 -3.288,3.461 -16.132,19.745 -22.208,17.251 -9.48,-4.063 0.472,-37.654 2.333,-43.667 5.18,-16.735 26.292,-61.627 11.875,-70.209 -12.887,-7.671 -24.062,-1.765 -30.347,9.506 -3.688,6.614 -5.833,14.029 -9.075,20.885 -0.725,1.534 -3.748,1.042 -3.008,-1.2 14.360335,-50.60374 25.095642,-87.45486 43.04,-121.396 -9.791,29.794 -17.883,60.12 -27.646,89.924 9.098,-11.463 25.074,-15.059 34.694,-2.321 6.113,8.094 4.92,19.815 3.232,29.166 -2.58472,23.07441 -22.432865,57.20835 -19.794,75.983 25.46217,-21.77874 46.08095,-52.50971 58.596,-80.793 16.628,-38.041 22.24557,-76.12527 25.44457,-117.489271 0.526,-6.801 0.0224,-19.731729 2.56443,-25.826729 3.229,-7.741 11.741,-4.592 11.639,2.239 -0.218,14.546 -0.468,29.09 -0.746,43.635 -1.111,58.211 -5.092,174.57 -5.092,174.57 0,0 52.381,-6.082 59.184,-6.654 -0.0472,-49.12567 -3.10743,-98.31085 -2.755,-141.262 0.043,-13.16 -7.251,-16.266 4.905,-28.345 5.74447,-2.701568 18.23985,54.27116 19.14533,63.42289 9.19885,23.92556 37.87569,-51.09929 42.02567,-66.10689 5.792,-21.277 10.271,-42.102 11.625,-63.92 0.45327,-8.303682 9.92371,-5.340137 9.455,4.205 z"
   inkscape:connector-curvature="0"
   style="fill:#231f20"
   sodipodi:nodetypes="ccccccccccccccccccccccccccccccccccccccccccccccccc" />
	</g>
</g></g></g>
</svg>