<?xml version="1.0" encoding="utf-8"?>
<!-- Generator: Adobe Illustrator 16.0.0, SVG Export Plug-In . SVG Version: 6.00 Build 0)  -->
<!DOCTYPE svg PUBLIC "-//W3C//DTD SVG 1.1//EN" "http://www.w3.org/Graphics/SVG/1.1/DTD/svg11.dtd">
<svg version="1.1" xmlns="http://www.w3.org/2000/svg" xmlns:xlink="http://www.w3.org/1999/xlink" x="0px" y="0px"
	 width="434.667px" height="434.667px" viewBox="0 0 434.667 434.667" enable-background="new 0 0 434.667 434.667"
	 xml:space="preserve">
<g id="Layer_1" display="none">
	
		<image display="inline" overflow="visible" width="1280" height="1884" xlink:href="784703F1.jpg"  transform="matrix(4.6692 0 0 4.6692 -4853.8232 -6198.1719)">
	</image>
</g>
<g id="Layer_2">
	<g>
		<path fill="#231F20" d="M331.479,296.072c-0.076-0.576-0.143-1.154-0.217-1.731C331.243,294.252,331.294,294.676,331.479,296.072z
			"/>
		<path fill="#231F20" d="M280.045,156.675c0.084,0.009,0.168,0.008,0.253-0.003l0.056-0.002
			C280.33,156.624,280.035,156.678,280.045,156.675z"/>
		<path fill="#231F20" d="M0,0v434.667h434.667V0H0z M336.969,26.347c-0.523,12.284-1.038,24.571-1.689,36.85
			c-0.827,15.601-1.652,31.201-2.513,46.8c-3.353,60.766-9.27,123.782-1.504,184.344c0.063,0.298,0.911,6.369,0.217,1.731
			c0.903,6.035,1.778,12.08,3.018,18.059c-0.322,0.086-0.645,0.172-0.967,0.258c-9.993-33.069-12.585-68.231-13.936-102.617
			c-1.46-37.168-1.573-74.262,0.335-111.42c-5.086,14.672-11.4,29.031-19.531,42.285c-3.883,6.329-10.626,19.195-18.793,20.683
			c-16.967,3.838-21.055-26.398-22.892-36.729c-0.545,26.018-1.121,52.035-1.723,78.052c-0.396,17.104-1.123,53.552-1.123,53.552
			s10.442,0.626,13.552,1.016c14.175,1.794,28.478,4.246,42.004,9.001c-0.052,0.329-0.103,0.659-0.154,0.988
			c-16.916,0.615-55.32-0.763-55.32-0.763s-0.733,12.95-0.821,16.784c-0.205,8.868-0.41,17.736-0.615,26.604
			c-0.333-0.006-0.667-0.012-1-0.018c0.015-14.412-0.971-28.825-0.956-43.237c-12.505,0.096-23.994,0.444-36.474,1.26
			c-6.527,0.427-22.848,1.48-22.848,1.48s-0.984,22.598-1.355,31.57c-1.648,39.757-3.465,79.507-5.863,119.226
			c-0.333-0.009-0.667-0.017-1-0.025c-0.634-50.023-0.479-100.067,0.046-150.093c-18.734,1.283-37.57,2.846-56.363,2.604
			c-0.014-0.333-0.027-0.667-0.041-1c14.638-1.231,56.469-7.469,56.469-7.469s0.102-10.001,0.144-14.022
			c0.137-12.996,0.299-25.991,0.484-38.987c0.392-27.535,0.887-55.065,1.504-82.597c-12.548,50.406-33.333,96.296-69.379,134.233
			c-3.288,3.461-16.132,19.745-22.208,17.251c-9.48-4.063,0.472-37.654,2.333-43.667c5.18-16.735,26.292-61.627,11.875-70.209
			c-12.887-7.671-24.062-1.765-30.347,9.506c-3.688,6.614-5.833,14.029-9.075,20.885c-0.725,1.534-3.748,1.042-3.008-1.2
			c-0.1-0.256,3.097-8.7,3.186-8.929c3.865-9.896,8.333-19.298,11.715-29.409c9.271-27.721,17.542-55.784,27.191-83.376
			c0.316,0.106,0.632,0.212,0.948,0.318c-9.791,29.794-17.883,60.12-27.646,89.924c9.098-11.463,25.074-15.059,34.694-2.321
			c6.113,8.094,4.92,19.815,3.232,29.166c-1.86,10.299-5.302,20.237-8.417,30.206c-4.101,13.121-13.789,31.917-11.377,45.777
			c15.465-9.704,27.817-29.979,38.057-44.689c7.915-11.39,14.978-23.381,20.539-36.104c16.628-38.041,23.9-78.515,27.099-119.879
			c0.526-6.801-1.632-17.342,0.91-23.437c3.229-7.741,11.741-4.592,11.639,2.239c-0.218,14.546-0.468,29.09-0.746,43.635
			c-1.111,58.211-5.092,174.57-5.092,174.57s52.381-6.082,59.184-6.654c0.01-10.129-0.979-21.027-0.969-31.156
			c0.019-18.278-1.955-36.556-1.924-54.833c0.032-18.425,0.079-36.849,0.138-55.273c0.043-13.16-7.251-16.266,4.905-28.345
			c5.814-5.778,6.991,18.608,7.273,20.486c1.837,12.219,3.705,24.865,8.012,36.503c7.701,20.659,17.853,4.1,24.782-7.836
			c9.376-16.147,16.208-33.849,21.104-51.837c5.792-21.277,10.271-42.102,11.625-63.92c0.229-3.702,3.541-7.326,7.442-4.771
			C337.918,19.307,337.091,23.476,336.969,26.347z"/>
	</g>
</g>
</svg>
