<?xml version="1.0" encoding="UTF-8" standalone="no"?>
<svg xmlns:dc="http://purl.org/dc/elements/1.1/" xmlns:cc="http://creativecommons.org/ns#" xmlns:rdf="http://www.w3.org/1999/02/22-rdf-syntax-ns#" xmlns:svg="http://www.w3.org/2000/svg" xmlns="http://www.w3.org/2000/svg" xmlns:sodipodi="http://sodipodi.sourceforge.net/DTD/sodipodi-0.dtd" xmlns:inkscape="http://www.inkscape.org/namespaces/inkscape" version="1.1" id="svg21" xml:space="preserve" width="819.2547" height="206.45734" viewBox="0 0 819.2547 206.45734" sodipodi:docname="DeviantArt_Logo.svg" inkscape:version="1.0.1 (3bc2e813f5, 2020-09-07)"><metadata id="metadata27"><rdf:RDF><cc:Work rdf:about=""><dc:format>image/svg+xml</dc:format><dc:type rdf:resource="http://purl.org/dc/dcmitype/StillImage"/><dc:title/></cc:Work></rdf:RDF></metadata><defs id="defs25"><clipPath clipPathUnits="userSpaceOnUse" id="clipPath45"><path d="M 0,154.843 H 614.441 V 0 H 0 Z" id="path43" inkscape:connector-curvature="0"/></clipPath></defs><sodipodi:namedview pagecolor="#ffffff" bordercolor="#666666" borderopacity="1" objecttolerance="10" gridtolerance="10" guidetolerance="10" inkscape:pageopacity="0" inkscape:pageshadow="2" inkscape:window-width="1920" inkscape:window-height="1136" id="namedview23" showgrid="false" inkscape:zoom="2" inkscape:cx="423.98879" inkscape:cy="156.52604" inkscape:window-x="0" inkscape:window-y="27" inkscape:window-maximized="1" inkscape:current-layer="g29" inkscape:document-rotation="0"/><g id="g29" inkscape:groupmode="layer" inkscape:label="DeviantArt" transform="matrix(1.3333333,0,0,-1.3333333,0,206.45733)"><path inkscape:connector-curvature="0" id="path33" style="fill:#05cc47;fill-opacity:1;fill-rule:nonzero;stroke:none" d="m 95.8257,154.8378 h -28.144 l -2.81,-2.833 -13.284,-25.315 -4.177,-2.819 H -3e-4 v -38.661 h 26.065 l 2.321,-2.808 L -3e-4,28.1598 V 0.0068 h 0.008 28.144 l 2.81,2.833 13.284,25.316 4.177,2.818 h 47.412 v 38.66 h -26.065 l -2.319,2.828 28.384,54.224 v 28.152 z"/><g id="g72" style="fill:#242627;fill-opacity:1"><path inkscape:connector-curvature="0" id="path59" style="fill-opacity:1;fill-rule:nonzero;stroke:none" d="m 196.252,154.8032 -9.35,-17.851 h 5.742 c 10.25,0 16.739,-6.551 16.739,-16.916 0,-10.244 -6.489,-16.797 -16.739,-16.797 h -6.489 v 32.288 l -20.129,-38.428 v -11.871 h 28.005 c 22.567,0 35.832,13.607 35.832,34.809 0,20.501 -12.4,33.895 -33.611,34.766"/><path inkscape:connector-curvature="0" id="path63" style="fill-opacity:1;fill-rule:nonzero;stroke:none" d="m 235.3657,85.2173 h 53.144 v 18.455 h -32.337 v 7.524 h 29.73 v 17.665 h -29.73 v 7.521 h 32.337 v 18.456 h -53.144 z"/><path inkscape:connector-curvature="0" id="path67" style="fill-opacity:1;fill-rule:nonzero;stroke:none" d="m 325.5059,112.7075 -10.086,42.13 h -21.598 l 16.672,-69.618 h 22.218 l 36.467,69.618 h -21.622 z"/><path inkscape:connector-curvature="0" id="path55" style="fill-opacity:1;fill-rule:nonzero;stroke:none" d="m 373.24,85.217 h 20.808 v 69.621 H 373.24 Z"/><path inkscape:connector-curvature="0" id="path75" style="fill-opacity:1;fill-rule:nonzero;stroke:none" d="m 433.752,112.0767 7.985,15.251 3.689,-15.251 z m 0.81,42.761 -36.443,-69.618 h 21.584 l 5.306,10.143 24.388,10e-4 2.421,-10.144 21.59,-0.002 -16.663,69.62 z"/><path inkscape:connector-curvature="0" id="path79" style="fill-opacity:1;fill-rule:nonzero;stroke:none" d="m 521.1865,121.8589 -23.305,32.979 h -20.521 v -69.621 h 20.802 v 35.358 l 25.799,-35.358 h 18.028 v 69.621 h -20.803 z"/><path inkscape:connector-curvature="0" id="path71" style="fill-opacity:1;fill-rule:nonzero;stroke:none" d="m 546.4502,154.8428 v -18.458 h 19.679 v -51.172 h 11.859 l 8.953,17.128 v 34.044 h 17.849 l 9.65,18.458 z"/><path inkscape:connector-curvature="0" id="path53" style="fill-opacity:1;fill-rule:nonzero;stroke:none" d="m 256.5591,69.6304 v -18.458 h 19.68 V 4e-4 h 11.858 l 8.954,17.128 v 34.044 h 17.848 l 9.651,18.458 z"/><path inkscape:connector-curvature="0" id="path49" style="fill-opacity:1;fill-rule:nonzero;stroke:none" d="m 224.5371,37.0815 h -9.237 v 14.077 h 9.237 c 5.628,0 7.766,-2.816 7.766,-7.095 0,-4.168 -2.138,-6.982 -7.766,-6.982 m 28.941,7.326 c 0,15.987 -10.813,25.223 -26.015,25.223 h -32.99 V 5e-4 h 20.827 v 20.308 h 5.068 l 4.136,0.011 10.084,-20.319 h 21.621 l -12.858,24.568 c 6.307,4.017 10.127,10.826 10.127,19.839"/><path inkscape:connector-curvature="0" id="path37" style="fill-opacity:1;fill-rule:nonzero;stroke:none" d="m 151.6176,69.6303 -36.434,-69.624 h 21.62 l 5.287,10.132 24.412,0.001 2.416,-10.133 h 21.618 l -16.663,69.624 z m 7.218,-27.495 3.691,-15.266 h -11.688 z"/></g></g></svg>